<svg width="26" height="26" viewBox="0 0 26 26" fill="none" xmlns="http://www.w3.org/2000/svg">
<g clip-path="url(#clip0_414_430)">
<path d="M13 26C20.1797 26 26 20.1797 26 13C26 5.8203 20.1797 0 13 0C5.8203 0 0 5.8203 0 13C0 20.1797 5.8203 26 13 26Z" fill="white"/>
<path d="M17.9446 8.12502L6.42725 12.613C5.96377 12.822 5.80701 13.2405 6.31523 13.4677L9.26994 14.4165L16.414 9.95498C16.8041 9.6749 17.2035 9.74958 16.8598 10.0577L10.724 15.6715L10.5313 18.0473C10.7098 18.4141 11.0367 18.4158 11.2452 18.2335L12.9427 16.6104L15.8501 18.8103C16.5254 19.2143 16.8928 18.9536 17.0381 18.2132L18.945 9.08877C19.143 8.1774 18.8054 7.77584 17.9446 8.12502Z" fill="#1869C0"/>
</g>
<defs>
<clipPath id="clip0_414_430">
<rect width="26" height="26" fill="white"/>
</clipPath>
</defs>
</svg>
