<svg width="26" height="26" viewBox="0 0 26 26" fill="none" xmlns="http://www.w3.org/2000/svg">
<path d="M0.108542 12.883C0.10773 15.1533 0.70363 17.3699 1.83671 19.3239L0 26L6.86273 24.2086C8.75355 25.2343 10.8824 25.7758 13.049 25.7765H13.0546C20.1894 25.7765 25.9969 19.9967 26 12.8931C26.0014 9.45057 24.656 6.21398 22.2117 3.77852C19.7677 1.34341 16.5175 0.0016162 13.054 0C5.91877 0 0.111634 5.77903 0.108542 12.883Z" fill="white"/>
<path fill-rule="evenodd" clip-rule="evenodd" d="M9.5594 7.5575C9.30132 7.02733 9.02978 7.01672 8.78432 7.00739C8.58344 6.99949 8.35369 7.00001 8.12421 7.00001C7.89444 7.00001 7.52127 7.07969 7.20571 7.39826C6.88988 7.71684 6 8.48694 6 10.0532C6 11.6196 7.23448 13.133 7.40647 13.3456C7.57875 13.5579 9.78948 16.8749 13.2904 18.1508C16.2002 19.2113 16.7923 19.0003 17.4239 18.9472C18.0554 18.8942 19.4619 18.1774 19.7488 17.434C20.0359 16.6907 20.0359 16.0535 19.9499 15.9205C19.8638 15.7878 19.634 15.7081 19.2896 15.549C18.945 15.3898 17.2516 14.6196 16.9359 14.5133C16.6201 14.4072 16.3904 14.3542 16.1607 14.673C15.931 14.9913 15.2713 15.7081 15.0703 15.9205C14.8694 16.1332 14.6684 16.1598 14.324 16.0005C13.9794 15.8408 12.87 15.505 11.5539 14.4206C10.5299 13.5768 9.83859 12.5347 9.63756 12.216C9.43667 11.8977 9.61611 11.7252 9.78882 11.5665C9.94358 11.4239 10.1334 11.1948 10.3057 11.009C10.4775 10.8231 10.5349 10.6904 10.6497 10.4781C10.7647 10.2656 10.7072 10.0797 10.6211 9.92042C10.5349 9.7612 9.8657 8.18701 9.5594 7.5575Z" fill="#1869C0"/>
</svg>
