<svg width="26" height="26" viewBox="0 0 26 26" fill="none" xmlns="http://www.w3.org/2000/svg">
<g clip-path="url(#clip0_414_433)">
<path d="M13 26C20.1797 26 26 20.1797 26 13C26 5.8203 20.1797 0 13 0C5.8203 0 0 5.8203 0 13C0 20.1797 5.8203 26 13 26Z" fill="white"/>
<path d="M11.8 14.7143L14.914 13L11.8 11.2857V14.7143ZM18.736 10.24C18.814 10.5086 18.868 10.8686 18.904 11.3257C18.946 11.7829 18.964 12.1771 18.964 12.52L19 13C19 14.2514 18.904 15.1714 18.736 15.76C18.586 16.2743 18.238 16.6057 17.698 16.7486C17.416 16.8229 16.9 16.8743 16.108 16.9086C15.328 16.9486 14.614 16.9657 13.954 16.9657L13 17C10.486 17 8.92 16.9086 8.302 16.7486C7.762 16.6057 7.414 16.2743 7.264 15.76C7.186 15.4914 7.132 15.1314 7.096 14.6743C7.054 14.2171 7.036 13.8229 7.036 13.48L7 13C7 11.7486 7.096 10.8286 7.264 10.24C7.414 9.72571 7.762 9.39429 8.302 9.25143C8.584 9.17714 9.1 9.12571 9.892 9.09143C10.672 9.05143 11.386 9.03429 12.046 9.03429L13 9C15.514 9 17.08 9.09143 17.698 9.25143C18.238 9.39429 18.586 9.72571 18.736 10.24Z" fill="#1869C0"/>
</g>
<defs>
<clipPath id="clip0_414_433">
<rect width="26" height="26" fill="white"/>
</clipPath>
</defs>
</svg>
