<svg width="35" height="34" viewBox="0 0 35 34" fill="none" xmlns="http://www.w3.org/2000/svg">
<path d="M29.7846 23.3448V26.818C29.7859 27.1404 29.7197 27.4596 29.5903 27.755C29.4609 28.0504 29.271 28.3156 29.033 28.5336C28.7949 28.7516 28.5139 28.9175 28.2078 29.0208C27.9018 29.1241 27.5775 29.1625 27.2557 29.1334C23.6861 28.7463 20.2573 27.529 17.2447 25.5792C14.4419 23.8017 12.0656 21.4301 10.2846 18.6329C8.32409 15.6126 7.10405 12.1739 6.72328 8.59537C6.69429 8.27522 6.73242 7.95255 6.83523 7.64791C6.93803 7.34327 7.10327 7.06334 7.32042 6.82592C7.53758 6.58851 7.80188 6.39882 8.09651 6.26894C8.39114 6.13906 8.70964 6.07183 9.03173 6.07152H12.5118C13.0748 6.06599 13.6206 6.26495 14.0474 6.63132C14.4743 6.99769 14.7531 7.50646 14.8319 8.06281C14.9787 9.17431 15.2511 10.2657 15.6439 11.316C15.7999 11.7304 15.8337 12.1807 15.7412 12.6137C15.6487 13.0466 15.4338 13.4441 15.1219 13.7588L13.6486 15.2291C15.3 18.1276 17.7046 20.5274 20.6088 22.1755L22.082 20.7052C22.3974 20.3939 22.7956 20.1794 23.2294 20.0871C23.6632 19.9947 24.1145 20.0284 24.5297 20.1842C25.5821 20.5762 26.6756 20.848 27.7893 20.9946C28.3528 21.074 28.8675 21.3572 29.2353 21.7906C29.6032 22.2239 29.7987 22.777 29.7846 23.3448Z" fill="#1869C0"/>
</svg>
