<svg width="35" height="34" viewBox="0 0 35 34" fill="none" xmlns="http://www.w3.org/2000/svg">
<path d="M28.1279 11.4168C24.6821 6.06922 17.6257 4.48477 12.1685 7.80222C6.84315 11.1197 5.1285 18.3487 8.57428 23.6798L8.85456 24.1089L7.70047 28.4331L12.0201 27.2778L12.4487 27.5584C14.3118 28.5652 16.3397 29.1428 18.3511 29.1428C20.5109 29.1428 22.6707 28.5652 24.5337 27.4098C29.859 23.9439 31.4418 16.8633 28.1279 11.3837V11.4168ZM25.1108 22.5409C24.5337 23.3992 23.8083 23.9769 22.8026 24.1254C22.2255 24.1254 21.5001 24.406 18.6314 23.2672C16.1913 22.1118 14.1634 20.2303 12.729 18.0682C11.8717 17.0614 11.4265 15.7575 11.2946 14.4536C11.2946 13.2983 11.7233 12.2915 12.4487 11.5653C12.729 11.2847 13.0258 11.1362 13.3061 11.1362H14.0315C14.3118 11.1362 14.6085 11.1362 14.7569 11.7138C15.0372 12.4401 15.7626 14.173 15.7626 14.3216C15.911 14.4701 15.8451 15.576 15.1856 16.2031C14.8229 16.6157 14.7569 16.6323 14.9053 16.9293C15.4823 17.7876 16.2078 18.6623 16.9167 19.3885C17.774 20.1148 18.6479 20.6924 19.6536 21.1215C19.9338 21.2701 20.2306 21.2701 20.379 20.973C20.5274 20.6924 21.2363 19.9662 21.5331 19.6691C21.8134 19.3885 21.9617 19.3885 22.2585 19.5206L24.5667 20.6759C24.847 20.8245 25.1437 20.9565 25.2921 21.105C25.4405 21.5342 25.4405 22.1118 25.1437 22.5409H25.1108Z" fill="#1869C0"/>
</svg>
