<svg width="279" height="261" viewBox="0 0 279 261" fill="none" xmlns="http://www.w3.org/2000/svg">
<g clip-path="url(#clip0_2961_235)">
<path fill-rule="evenodd" clip-rule="evenodd" d="M142.22 79.9065C114.977 91.2085 92.6728 98.8408 76.5517 116.913C82.4395 119.435 90.5378 121.064 101.187 122.607C111.722 166.749 142.758 209.522 68.9976 209.282C72.5376 232.918 72.6358 252.578 47.4062 257.586C83.6672 266.471 136.158 251.329 166.459 219.492C163.622 213.989 155.589 211.549 142.758 209.522C132.668 165.246 159.215 133.525 190.397 122.608C190.16 119.294 189.886 116.06 189.588 112.944L174.316 102.294C174.459 109.807 174.025 116.539 173.106 122.608H116.603C122.97 111.009 134.378 99.5525 154.803 88.6835L142.22 79.9065Z" fill="#F9743F"/>
<path fill-rule="evenodd" clip-rule="evenodd" d="M24.7588 122.607C15.841 154.247 7.89366 181.089 0.0045929 209.189C246.955 209.744 0.0045929 209.189 246.955 209.744C263.913 209.744 274.883 201.471 276.59 182.327C278.448 161.43 257.832 156.326 243.978 165.407C243.388 165.793 242.819 166.199 242.275 166.622C240.528 164.063 237.726 162.516 234.772 161.746C232.75 161.216 230.381 160.952 227.669 160.952C226.951 160.952 226.246 160.969 225.557 161.001L229.832 145.784H232.559H240.091L242.207 138.253L244.466 130.214L246.604 122.606L24.7711 122.606L24.7588 122.607Z" fill="#2D3639"/>
<path fill-rule="evenodd" clip-rule="evenodd" d="M21.0699 162.719H31.1713L34.8817 149.512H35.768C36.6845 149.512 37.4406 149.762 38.0187 150.261C38.4488 150.65 38.8189 151.489 39.142 152.771L41.7185 162.719H53.0846L50.8718 153.286C50.7695 152.807 50.4886 152.141 50.0296 151.262C49.5693 150.391 49.1922 149.822 48.9036 149.557C48.4629 149.155 47.7032 148.754 46.6192 148.352C48.2063 148.02 49.5013 147.586 50.5096 147.072C52.0813 146.253 53.4399 145.192 54.5806 143.882C55.715 142.571 56.5377 141.018 57.0464 139.206C57.6272 137.138 57.6217 135.379 57.0177 133.939C56.4164 132.493 55.3676 131.508 53.8729 130.976C52.386 130.438 50.0806 130.174 46.9738 130.174H30.2119L21.0699 162.719Z" fill="white"/>
<path fill-rule="evenodd" clip-rule="evenodd" d="M58.8188 146.467C57.7495 150.272 57.6109 153.439 58.3928 155.971C59.1824 158.501 60.6098 160.35 62.6825 161.525C64.7636 162.692 67.6393 163.276 71.3061 163.276C74.9212 163.276 78.1192 162.601 80.9255 161.244C83.7234 159.889 86.1036 157.994 88.0678 155.562C90.0333 153.128 91.5538 150.007 92.6216 146.203C94.0925 140.966 93.768 136.89 91.6582 133.988C89.5434 131.078 85.7757 129.623 80.3571 129.623C75.0767 129.623 70.5388 131.099 66.7434 134.065C62.9588 137.019 60.3108 141.157 58.8183 146.467L58.8188 146.467Z" fill="white"/>
<path fill-rule="evenodd" clip-rule="evenodd" d="M18.8516 169.082L9.7095 201.628H27.0687C27.8108 201.628 29.3543 201.476 31.7047 201.181C33.4698 200.962 34.8431 200.605 35.8199 200.12C37.407 199.333 38.7727 198.271 39.94 196.922C41.099 195.574 41.9188 194.058 42.3925 192.367C42.9741 190.299 42.9046 188.58 42.1907 187.207C41.4674 185.844 40.0213 184.874 37.8441 184.314C39.5308 183.781 40.9028 183.054 41.9643 182.14C43.5492 180.76 44.6109 179.106 45.1505 177.183C45.7938 174.894 45.4938 172.968 44.2479 171.415C43.009 169.862 40.82 169.082 37.6816 169.082H18.8519" fill="white"/>
<path fill-rule="evenodd" clip-rule="evenodd" d="M237.094 190.85C236.451 194.139 236.896 196.844 238.435 198.974C239.962 201.112 243.501 202.173 249.031 202.173C252.185 202.173 254.926 201.718 257.251 200.807C259.583 199.898 261.57 198.564 263.219 196.799C264.865 195.042 265.988 193.116 266.575 191.034C267.075 189.252 267.086 187.646 266.623 186.214C266.166 184.773 265.115 183.576 263.484 182.605C261.855 181.636 258.982 180.673 254.852 179.727C253.177 179.355 252.165 178.961 251.808 178.529C251.442 178.113 251.329 177.649 251.473 177.136C251.674 176.424 252.138 175.817 252.868 175.323C253.6 174.824 254.547 174.582 255.722 174.582C257.139 174.582 258.158 174.915 258.775 175.573C259.401 176.24 259.631 177.309 259.469 178.773L269.106 178.218C269.637 174.845 269.032 172.384 267.283 170.838C265.536 169.291 262.576 168.519 258.418 168.519C255.03 168.519 252.244 168.943 250.057 169.793C247.871 170.647 246.088 171.815 244.701 173.301C243.313 174.785 242.382 176.37 241.912 178.045C241.198 180.59 241.557 182.682 242.99 184.326C244.407 185.97 247.184 187.282 251.315 188.274C253.846 188.864 255.383 189.494 255.938 190.161C256.494 190.828 256.643 191.586 256.408 192.425C256.158 193.313 255.552 194.094 254.589 194.769C253.62 195.443 252.418 195.777 250.988 195.777C249.064 195.777 247.76 195.125 247.101 193.805C246.694 192.987 246.603 191.805 246.834 190.252L237.094 190.85Z" fill="white"/>
<path fill-rule="evenodd" clip-rule="evenodd" d="M206.326 130.177L204.067 138.217H214.319L207.438 162.724H217.492L224.377 138.217H234.637L236.896 130.177H206.326Z" fill="white"/>
<path fill-rule="evenodd" clip-rule="evenodd" d="M175.76 130.178L166.617 162.723H194.057L196.127 155.35H178.767L180.569 148.94H196.217L198.081 142.3H182.433L183.886 137.125H200.755L202.707 130.177L175.76 130.178Z" fill="white"/>
<path fill-rule="evenodd" clip-rule="evenodd" d="M137.942 130.178L128.8 162.723H138.855L141.089 154.775L147.815 149.334L150.912 162.723H163.301L156.606 142.453L171.915 130.177H158.548L144.545 142.476L147.999 130.177L137.942 130.178Z" fill="white"/>
<path fill-rule="evenodd" clip-rule="evenodd" d="M118.798 149.427C117.772 151.488 116.62 153.057 115.333 154.133C114.043 155.216 112.437 155.754 110.512 155.754C108.534 155.754 107.183 155.088 106.462 153.746C105.748 152.406 105.888 149.934 106.904 146.321C107.722 143.404 108.787 141.266 110.087 139.902C111.814 138.069 113.821 137.151 116.093 137.151C117.101 137.151 117.954 137.356 118.655 137.772C119.349 138.189 119.873 138.779 120.217 139.545C120.43 140.009 120.551 140.735 120.583 141.728L130.02 139.75C129.847 136.317 128.819 133.77 126.937 132.112C125.053 130.453 122.065 129.626 117.965 129.626C112.73 129.626 108.269 131.074 104.591 133.968C100.916 136.855 98.3187 141 96.8058 146.388C95.67 150.426 95.5586 153.739 96.4528 156.33C97.3538 158.921 98.7855 160.734 100.74 161.762C102.688 162.787 105.437 163.302 108.975 163.302C111.884 163.302 114.406 162.884 116.529 162.037C118.654 161.195 120.589 159.945 122.328 158.285C124.066 156.625 125.577 154.565 126.863 152.095L118.798 149.427Z" fill="white"/>
<path fill-rule="evenodd" clip-rule="evenodd" d="M204.267 190.85C203.623 194.139 204.067 196.844 205.606 198.974C207.136 201.112 210.673 202.173 216.203 202.173C219.355 202.173 222.098 201.718 224.421 200.807C226.753 199.898 228.742 198.564 230.391 196.799C232.036 195.042 233.16 193.116 233.747 191.034C234.246 189.252 234.258 187.646 233.795 186.214C233.338 184.773 232.287 183.576 230.656 182.605C229.026 181.636 226.152 180.673 222.024 179.727C220.347 179.355 219.337 178.961 218.98 178.529C218.613 178.113 218.5 177.649 218.645 177.136C218.846 176.424 219.31 175.817 220.04 175.323C220.772 174.824 221.719 174.582 222.893 174.582C224.31 174.582 225.33 174.915 225.949 175.573C226.572 176.24 226.803 177.309 226.642 178.773L236.276 178.218C236.807 174.845 236.203 172.384 234.456 170.838C232.707 169.291 229.748 168.519 225.589 168.519C222.202 168.519 219.414 168.943 217.229 169.793C215.041 170.647 213.258 171.815 211.871 173.301C210.483 174.785 209.554 176.37 209.084 178.045C208.368 180.59 208.727 182.682 210.16 184.326C211.579 185.97 214.354 187.282 218.487 188.274C221.018 188.864 222.553 189.494 223.11 190.161C223.664 190.828 223.815 191.586 223.578 192.425C223.33 193.313 222.724 194.094 221.761 194.769C220.792 195.443 219.592 195.777 218.159 195.777C216.234 195.777 214.933 195.125 214.271 193.805C213.866 192.987 213.775 191.805 214.006 190.252L204.267 190.85Z" fill="white"/>
<path fill-rule="evenodd" clip-rule="evenodd" d="M179.285 169.082L170.141 201.628H197.579L199.651 194.254H182.291L184.092 187.845H199.741L201.605 181.207H185.957L187.408 176.03H204.277L206.231 169.082L179.285 169.082Z" fill="white"/>
<path fill-rule="evenodd" clip-rule="evenodd" d="M141.494 169.082L132.352 201.628H141.808L146.828 183.761L154 201.628H163.48L172.622 169.082H163.143L158.085 187.087L150.89 169.082H141.494Z" fill="white"/>
<path fill-rule="evenodd" clip-rule="evenodd" d="M124.128 169.082L114.986 201.628H125.065L134.207 169.082H124.128Z" fill="white"/>
<path fill-rule="evenodd" clip-rule="evenodd" d="M83.0242 190.85C82.3809 194.139 82.8246 196.844 84.3647 198.974C85.8943 201.112 89.4293 202.173 94.9623 202.173C98.1147 202.173 100.856 201.718 103.18 200.807C105.512 199.898 107.501 198.564 109.149 196.799C110.794 195.042 111.919 193.116 112.503 191.034C113.003 189.252 113.016 187.646 112.554 186.214C112.094 184.773 111.045 183.576 109.415 182.605C107.785 181.636 104.911 180.673 100.782 179.727C99.1049 179.355 98.0937 178.961 97.7386 178.529C97.3706 178.113 97.2571 177.649 97.4035 177.136C97.6033 176.424 98.0692 175.817 98.7987 175.323C99.5288 174.824 100.478 174.582 101.651 174.582C103.069 174.582 104.089 174.915 104.706 175.573C105.329 176.24 105.562 177.309 105.4 178.773L115.035 178.218C115.566 174.845 114.961 172.384 113.212 170.838C111.466 169.291 108.508 168.519 104.348 168.519C100.961 168.519 98.1737 168.943 95.9876 169.793C93.7986 170.647 92.0152 171.815 90.63 173.301C89.2425 174.785 88.3128 176.37 87.8419 178.045C87.1265 180.59 87.4865 182.682 88.9182 184.326C90.3357 185.97 93.1126 187.282 97.2439 188.274C99.777 188.864 101.312 189.494 101.868 190.161C102.422 190.828 102.573 191.586 102.337 192.425C102.089 193.313 101.481 194.094 100.52 194.769C99.5499 195.443 98.3483 195.777 96.9175 195.777C94.9925 195.777 93.6898 195.125 93.0306 193.805C92.6241 192.987 92.5316 191.805 92.7635 190.252L83.0242 190.85Z" fill="white"/>
<path fill-rule="evenodd" clip-rule="evenodd" d="M74.1992 169.082L68.6181 188.95C68.1108 190.753 67.2243 192.156 65.9715 193.131C64.711 194.118 63.2072 194.611 61.4807 194.611C59.7303 194.611 58.5069 194.11 57.8026 193.109C57.1032 192.117 56.9995 190.729 57.5005 188.95L63.0818 169.082H53.0412L47.5903 188.488C47.1419 190.087 46.9367 191.92 46.9772 193.99C47.0011 195.277 47.362 196.527 48.0675 197.74C48.7739 198.952 49.6616 199.892 50.7331 200.552C51.8051 201.21 53.2436 201.651 55.0537 201.87C56.8623 202.098 58.5586 202.204 60.1429 202.204C62.8876 202.204 65.3296 201.84 67.487 201.121C69.044 200.597 70.6361 199.702 72.2755 198.422C73.9167 197.141 75.2789 195.641 76.3564 193.935C77.4342 192.223 78.2476 190.412 78.7879 188.488L84.2381 169.082L74.1992 169.082Z" fill="white"/>
<path fill-rule="evenodd" clip-rule="evenodd" d="M192.105 103.185L151.367 74.6115L189.298 46.4509L173.81 35.6739L227.726 20.2644L224.316 73.1712L209.522 61.467L192.105 103.185Z" fill="white" stroke="#2D3639" stroke-width="6.05402"/>
<path fill-rule="evenodd" clip-rule="evenodd" d="M36.6099 143.36L38.4683 136.744H42.8855C44.7191 136.744 45.8916 137.024 46.3967 137.593C46.9069 138.154 47.0154 138.958 46.7198 140.011C46.5194 140.722 46.1298 141.352 45.5608 141.898C44.9827 142.443 44.3408 142.784 43.6352 142.92C42.2345 143.216 41.3083 143.36 40.8535 143.36H36.6099Z" fill="#2D3639"/>
<path fill-rule="evenodd" clip-rule="evenodd" d="M68.8685 146.508C69.7984 143.196 71.0799 140.817 72.7104 139.385C74.3425 137.944 76.1719 137.232 78.1948 137.232C80.3172 137.232 81.7938 137.936 82.6333 139.347C83.4692 140.764 83.4636 143 82.601 146.069C81.5794 149.706 80.2719 152.229 78.6931 153.639C77.118 155.04 75.2448 155.744 73.0861 155.744C70.9861 155.744 69.5215 155.025 68.7038 153.593C67.8889 152.153 67.9443 149.794 68.8685 146.508V146.508Z" fill="#2D3639"/>
<path fill-rule="evenodd" clip-rule="evenodd" d="M21.8206 194.63L23.6725 188.038H28.78C30.5458 188.038 31.6909 188.335 32.2302 188.917C32.7727 189.5 32.9029 190.273 32.6338 191.237C32.3423 192.275 31.7538 193.1 30.8697 193.714C29.9923 194.328 28.6869 194.63 26.952 194.63L21.8206 194.63Z" fill="#2D3639"/>
<path fill-rule="evenodd" clip-rule="evenodd" d="M25.4113 181.85L27.1457 175.674H31.5874C33.1109 175.674 34.1044 175.941 34.5753 176.477C35.0384 177.009 35.1337 177.751 34.868 178.699C34.5823 179.714 34.0603 180.494 33.2922 181.039C32.5209 181.578 31.3521 181.85 29.7839 181.85L25.4113 181.85Z" fill="#2D3639"/>
</g>
<defs>
<clipPath id="clip0_2961_235">
<rect width="278.046" height="260.099" fill="white"/>
</clipPath>
</defs>
</svg>
