<svg width="14" height="14" viewBox="0 0 14 14" fill="none" xmlns="http://www.w3.org/2000/svg">
<path d="M1.75 4.66667L4.92912 6.78608C5.67755 7.28504 6.05177 7.53452 6.45624 7.63145C6.81369 7.7171 7.18631 7.7171 7.54376 7.63145C7.94823 7.53452 8.32245 7.28504 9.07088 6.78608L12.25 4.66667M3.61667 11.0833H10.3833C11.0367 11.0833 11.3634 11.0833 11.613 10.9562C11.8325 10.8443 12.011 10.6659 12.1228 10.4463C12.25 10.1968 12.25 9.87007 12.25 9.21667V4.78334C12.25 4.12994 12.25 3.80325 12.1228 3.55368C12.011 3.33416 11.8325 3.15568 11.613 3.04383C11.3634 2.91667 11.0367 2.91667 10.3833 2.91667H3.61667C2.96327 2.91667 2.63657 2.91667 2.38701 3.04383C2.16749 3.15568 1.98901 3.33416 1.87716 3.55368C1.75 3.80325 1.75 4.12994 1.75 4.78334V9.21667C1.75 9.87007 1.75 10.1968 1.87716 10.4463C1.98901 10.6659 2.16749 10.8443 2.38701 10.9562C2.63657 11.0833 2.96327 11.0833 3.61667 11.0833Z" stroke="white" stroke-linecap="round" stroke-linejoin="round"/>
</svg>
