<svg width="14" height="15" viewBox="0 0 14 15" fill="none" xmlns="http://www.w3.org/2000/svg">
<path d="M1.75 3.70833C1.75 8.70191 5.79809 12.75 10.7917 12.75C11.017 12.75 11.2403 12.7418 11.4615 12.7256C11.7153 12.707 11.8422 12.6977 11.9577 12.6312C12.0534 12.5761 12.1441 12.4785 12.1921 12.379C12.25 12.2589 12.25 12.1189 12.25 11.8388V10.1954C12.25 9.95987 12.25 9.84211 12.2112 9.74115C12.177 9.65198 12.1214 9.57258 12.0493 9.50992C11.9676 9.43899 11.857 9.39875 11.6356 9.31826L9.76497 8.63802C9.50744 8.54437 9.37868 8.49755 9.25651 8.5055C9.14878 8.51251 9.04512 8.54927 8.95705 8.6117C8.85717 8.6825 8.78667 8.79999 8.64569 9.03496L8.64569 9.03497L8.16667 9.83333C6.62091 9.13328 5.36777 7.87851 4.66667 6.33333L5.46503 5.85431C5.70001 5.71333 5.8175 5.64283 5.8883 5.54295C5.95073 5.45488 5.98749 5.35122 5.9945 5.24349C6.00245 5.12132 5.95563 4.99256 5.86198 4.73503L5.86198 4.73503L5.18174 2.86437C5.10125 2.64303 5.06101 2.53235 4.99008 2.45072C4.92742 2.37862 4.84802 2.323 4.75885 2.28876C4.65789 2.25 4.54013 2.25 4.3046 2.25H2.66117C2.3811 2.25 2.24106 2.25 2.12099 2.3079C2.02154 2.35585 1.92391 2.44659 1.86883 2.54227C1.80231 2.65779 1.79302 2.78469 1.77444 3.03851C1.75824 3.25967 1.75 3.48304 1.75 3.70833Z" stroke="white" stroke-linecap="round" stroke-linejoin="round"/>
</svg>
